<?xml version="1.0" encoding="UTF-8"?>
<svg version="1.1" xmlns="http://www.w3.org/2000/svg" width="80" height="80">
<path d="M0 0 C1.98 0 3.96 0 6 0 C6 1.98 6 3.96 6 6 C4.68 6 3.36 6 2 6 C2 7.32 2 8.64 2 10 C-0.64 10 -3.28 10 -6 10 C-6 10.66 -6 11.32 -6 12 C-2.7 12 0.6 12 4 12 C4 10.68 4 9.36 4 8 C7.3 8 10.6 8 14 8 C14 9.32 14 10.64 14 12 C15.32 12 16.64 12 18 12 C18 13.98 18 15.96 18 18 C16.02 18 14.04 18 12 18 C12 16.68 12 15.36 12 14 C10.02 14 8.04 14 6 14 C6 15.32 6 16.64 6 18 C4.68 18 3.36 18 2 18 C2 18.66 2 19.32 2 20 C3.32 20 4.64 20 6 20 C6 21.32 6 22.64 6 24 C7.32 24 8.64 24 10 24 C10 25.32 10 26.64 10 28 C11.32 28 12.64 28 14 28 C14 29.32 14 30.64 14 32 C15.32 32 16.64 32 18 32 C18 35.3 18 38.6 18 42 C16.02 42 14.04 42 12 42 C12 39.36 12 36.72 12 34 C11.34 34 10.68 34 10 34 C10 35.32 10 36.64 10 38 C8.68 38 7.36 38 6 38 C6 39.32 6 40.64 6 42 C4.68 42 3.36 42 2 42 C2 42.66 2 43.32 2 44 C3.32 44 4.64 44 6 44 C6 45.32 6 46.64 6 48 C7.32 48 8.64 48 10 48 C10 51.3 10 54.6 10 58 C8.68 58 7.36 58 6 58 C6 59.32 6 60.64 6 62 C4.02 62 2.04 62 0 62 C0 60.02 0 58.04 0 56 C1.32 56 2.64 56 4 56 C4 54.02 4 52.04 4 50 C2.68 50 1.36 50 0 50 C0 48.68 0 47.36 0 46 C-0.66 46 -1.32 46 -2 46 C-2 47.32 -2 48.64 -2 50 C-3.32 50 -4.64 50 -6 50 C-6 51.32 -6 52.64 -6 54 C-11.94 54 -17.88 54 -24 54 C-24 52.68 -24 51.36 -24 50 C-24.66 50 -25.32 50 -26 50 C-26 51.98 -26 53.96 -26 56 C-24.68 56 -23.36 56 -22 56 C-22 57.32 -22 58.64 -22 60 C-19.36 60 -16.72 60 -14 60 C-14 61.98 -14 63.96 -14 66 C-17.3 66 -20.6 66 -24 66 C-24 64.68 -24 63.36 -24 62 C-25.32 62 -26.64 62 -28 62 C-28 60.68 -28 59.36 -28 58 C-29.32 58 -30.64 58 -32 58 C-32 54.7 -32 51.4 -32 48 C-30.68 48 -29.36 48 -28 48 C-28 47.34 -28 46.68 -28 46 C-29.98 46 -31.96 46 -34 46 C-34 47.32 -34 48.64 -34 50 C-35.32 50 -36.64 50 -38 50 C-38 52.64 -38 55.28 -38 58 C-39.98 58 -41.96 58 -44 58 C-44 54.7 -44 51.4 -44 48 C-42.68 48 -41.36 48 -40 48 C-40 46.68 -40 45.36 -40 44 C-38.68 44 -37.36 44 -36 44 C-36 42.02 -36 40.04 -36 38 C-37.32 38 -38.64 38 -40 38 C-40 36.68 -40 35.36 -40 34 C-40.66 34 -41.32 34 -42 34 C-42 36.64 -42 39.28 -42 42 C-43.98 42 -45.96 42 -48 42 C-48 38.7 -48 35.4 -48 32 C-46.68 32 -45.36 32 -44 32 C-44 30.68 -44 29.36 -44 28 C-42.68 28 -41.36 28 -40 28 C-40 26.68 -40 25.36 -40 24 C-38.68 24 -37.36 24 -36 24 C-36 22.02 -36 20.04 -36 18 C-37.32 18 -38.64 18 -40 18 C-40 14.7 -40 11.4 -40 8 C-38.68 8 -37.36 8 -36 8 C-36 6.68 -36 5.36 -36 4 C-34.02 4 -32.04 4 -30 4 C-30 5.98 -30 7.96 -30 10 C-31.32 10 -32.64 10 -34 10 C-34 11.98 -34 13.96 -34 16 C-33.34 16 -32.68 16 -32 16 C-32 14.68 -32 13.36 -32 12 C-29.36 12 -26.72 12 -24 12 C-24 10.68 -24 9.36 -24 8 C-18.72 8 -13.44 8 -8 8 C-8 6.68 -8 5.36 -8 4 C-5.36 4 -2.72 4 0 4 C0 2.68 0 1.36 0 0 Z " fill="#A86622" transform="translate(55,7)"/>
<path d="M0 0 C5.28 0 10.56 0 16 0 C16 1.32 16 2.64 16 4 C18.64 4 21.28 4 24 4 C24 9.28 24 14.56 24 20 C22.68 20 21.36 20 20 20 C20 22.64 20 25.28 20 28 C18.68 28 17.36 28 16 28 C16 29.32 16 30.64 16 32 C10.72 32 5.44 32 0 32 C0 30.68 0 29.36 0 28 C-1.32 28 -2.64 28 -4 28 C-4 25.36 -4 22.72 -4 20 C-5.32 20 -6.64 20 -8 20 C-8 18.68 -8 17.36 -8 16 C-9.32 16 -10.64 16 -12 16 C-12 13.36 -12 10.72 -12 8 C-10.68 8 -9.36 8 -8 8 C-8 6.68 -8 5.36 -8 4 C-5.36 4 -2.72 4 0 4 C0 2.68 0 1.36 0 0 Z " fill="#EBEBEA" transform="translate(32,28)"/>
<path d="M0 0 C1.98 0 3.96 0 6 0 C6 1.98 6 3.96 6 6 C4.68 6 3.36 6 2 6 C2 7.32 2 8.64 2 10 C-0.64 10 -3.28 10 -6 10 C-6 10.66 -6 11.32 -6 12 C-2.7 12 0.6 12 4 12 C4 10.68 4 9.36 4 8 C7.3 8 10.6 8 14 8 C14 9.32 14 10.64 14 12 C15.32 12 16.64 12 18 12 C18 13.98 18 15.96 18 18 C16.02 18 14.04 18 12 18 C12 16.68 12 15.36 12 14 C10.02 14 8.04 14 6 14 C6 15.32 6 16.64 6 18 C4.68 18 3.36 18 2 18 C2 18.66 2 19.32 2 20 C3.32 20 4.64 20 6 20 C6 21.32 6 22.64 6 24 C7.32 24 8.64 24 10 24 C10 25.32 10 26.64 10 28 C11.32 28 12.64 28 14 28 C14 29.32 14 30.64 14 32 C15.32 32 16.64 32 18 32 C18 35.3 18 38.6 18 42 C16.02 42 14.04 42 12 42 C11.9727585 40.58344207 11.95349533 39.16672955 11.9375 37.75 C11.92589844 36.96109375 11.91429687 36.1721875 11.90234375 35.359375 C11.99614694 33.09308998 12.36758937 31.1711105 13 29 C11.68 29 10.36 29 9 29 C9 27.68 9 26.36 9 25 C7.68 25 6.36 25 5 25 C5 23.68 5 22.36 5 21 C3.68 21 2.36 21 1 21 C1 19.68 1 18.36 1 17 C2.32 17 3.64 17 5 17 C5 15.68 5 14.36 5 13 C1.04 13 -2.92 13 -7 13 C-7 11.68 -7 10.36 -7 9 C-12.28 9 -17.56 9 -23 9 C-23 10.32 -23 11.64 -23 13 C-25.64 13 -28.28 13 -31 13 C-31 14.32 -31 15.64 -31 17 C-32.32 17 -33.64 17 -35 17 C-35 19.64 -35 22.28 -35 25 C-36.32 25 -37.64 25 -39 25 C-39 26.32 -39 27.64 -39 29 C-40.32 29 -41.64 29 -43 29 C-43 30.32 -43 31.64 -43 33 C-41.68 33 -40.36 33 -39 33 C-39 34.32 -39 35.64 -39 37 C-38.01 37.33 -37.02 37.66 -36 38 C-37.32 38 -38.64 38 -40 38 C-40 36.68 -40 35.36 -40 34 C-40.66 34 -41.32 34 -42 34 C-42 36.64 -42 39.28 -42 42 C-43.98 42 -45.96 42 -48 42 C-48 38.7 -48 35.4 -48 32 C-46.68 32 -45.36 32 -44 32 C-44 30.68 -44 29.36 -44 28 C-42.68 28 -41.36 28 -40 28 C-40 26.68 -40 25.36 -40 24 C-38.68 24 -37.36 24 -36 24 C-36 22.02 -36 20.04 -36 18 C-37.32 18 -38.64 18 -40 18 C-40 14.7 -40 11.4 -40 8 C-38.68 8 -37.36 8 -36 8 C-36 6.68 -36 5.36 -36 4 C-34.02 4 -32.04 4 -30 4 C-30 5.98 -30 7.96 -30 10 C-31.32 10 -32.64 10 -34 10 C-34 11.98 -34 13.96 -34 16 C-33.34 16 -32.68 16 -32 16 C-32 14.68 -32 13.36 -32 12 C-29.36 12 -26.72 12 -24 12 C-24 10.68 -24 9.36 -24 8 C-18.72 8 -13.44 8 -8 8 C-8 6.68 -8 5.36 -8 4 C-5.36 4 -2.72 4 0 4 C0 2.68 0 1.36 0 0 Z " fill="#201306" transform="translate(55,7)"/>
<path d="M0 0 C2.64 0 5.28 0 8 0 C8 1.32 8 2.64 8 4 C9.32 4 10.64 4 12 4 C12 5.32 12 6.64 12 8 C17.28 8 22.56 8 28 8 C28 6.68 28 5.36 28 4 C29.32 4 30.64 4 32 4 C32 2.68 32 1.36 32 0 C33.32 0 34.64 0 36 0 C36 1.32 36 2.64 36 4 C37.32 4 38.64 4 40 4 C40 6.64 40 9.28 40 12 C41.32 12 42.64 12 44 12 C44 9.03 44 6.06 44 3 C44.33 3 44.66 3 45 3 C45 6.3 45 9.6 45 13 C43.68 13 42.36 13 41 13 C41 14.32 41 15.64 41 17 C39.02 17 37.04 17 35 17 C35 15.02 35 13.04 35 11 C36.32 11 37.64 11 39 11 C39 9.02 39 7.04 39 5 C37.68 5 36.36 5 35 5 C35 3.68 35 2.36 35 1 C34.34 1 33.68 1 33 1 C33 2.32 33 3.64 33 5 C31.68 5 30.36 5 29 5 C29 6.32 29 7.64 29 9 C23.06 9 17.12 9 11 9 C11 7.68 11 6.36 11 5 C10.34 5 9.68 5 9 5 C9 6.98 9 8.96 9 11 C10.32 11 11.64 11 13 11 C13 12.32 13 13.64 13 15 C15.64 15 18.28 15 21 15 C21 16.98 21 18.96 21 21 C17.7 21 14.4 21 11 21 C11 19.68 11 18.36 11 17 C9.68 17 8.36 17 7 17 C7 15.68 7 14.36 7 13 C5.68 13 4.36 13 3 13 C3 9.7 3 6.4 3 3 C4.32 3 5.64 3 7 3 C7 2.34 7 1.68 7 1 C5.02 1 3.04 1 1 1 C1 2.32 1 3.64 1 5 C-0.32 5 -1.64 5 -3 5 C-3 7.64 -3 10.28 -3 13 C-4.98 13 -6.96 13 -9 13 C-9 9.7 -9 6.4 -9 3 C-8.01 3.495 -8.01 3.495 -7 4 C-7.33 6.64 -7.66 9.28 -8 12 C-6.68 12 -5.36 12 -4 12 C-4 9.36 -4 6.72 -4 4 C-2.68 4 -1.36 4 0 4 C0 2.68 0 1.36 0 0 Z " fill="#1C1105" transform="translate(20,52)"/>
<path d="M0 0 C2.64 0 5.28 0 8 0 C8 1.32 8 2.64 8 4 C9.32 4 10.64 4 12 4 C12 6.64 12 9.28 12 12 C10.68 12 9.36 12 8 12 C8 13.32 8 14.64 8 16 C5.36 16 2.72 16 0 16 C0 14.68 0 13.36 0 12 C-1.32 12 -2.64 12 -4 12 C-4 9.36 -4 6.72 -4 4 C-2.68 4 -1.36 4 0 4 C0 2.68 0 1.36 0 0 Z " fill="#34383A" transform="translate(36,32)"/>
<path d="M0 0 C1.32 0 2.64 0 4 0 C4 1.32 4 2.64 4 4 C5.32 4 6.64 4 8 4 C7.67 5.65 7.34 7.3 7 9 C6.34 9 5.68 9 5 9 C5 10.32 5 11.64 5 13 C3.68 13 2.36 13 1 13 C1 14.32 1 15.64 1 17 C-0.32 17 -1.64 17 -3 17 C-3 17.66 -3 18.32 -3 19 C-1.68 19 -0.36 19 1 19 C1 20.32 1 21.64 1 23 C1.99 23 2.98 23 4 23 C4 25.97 4 28.94 4 32 C2.68 32 1.36 32 0 32 C0 29.36 0 26.72 0 24 C-1.32 24 -2.64 24 -4 24 C-4 22.68 -4 21.36 -4 20 C-5.32 20 -6.64 20 -8 20 C-8 18.68 -8 17.36 -8 16 C-5.36 16 -2.72 16 0 16 C0 10.72 0 5.44 0 0 Z " fill="#513110" transform="translate(60,32)"/>
<path d="M0 0 C7.92 0 15.84 0 24 0 C24 1.32 24 2.64 24 4 C22.68 4 21.36 4 20 4 C20 5.32 20 6.64 20 8 C14.72 8 9.44 8 4 8 C4 6.68 4 5.36 4 4 C2.68 4 1.36 4 0 4 C0 2.68 0 1.36 0 0 Z " fill="#B6A189" transform="translate(28,52)"/>
<path d="M0 0 C1.32 0 2.64 0 4 0 C4 1.32 4 2.64 4 4 C5.32 4 6.64 4 8 4 C8 6.64 8 9.28 8 12 C9.32 12 10.64 12 12 12 C12 9.03 12 6.06 12 3 C12.33 3 12.66 3 13 3 C13 6.3 13 9.6 13 13 C11.68 13 10.36 13 9 13 C9 14.32 9 15.64 9 17 C7.02 17 5.04 17 3 17 C3 15.02 3 13.04 3 11 C4.32 11 5.64 11 7 11 C7 9.02 7 7.04 7 5 C5.68 5 4.36 5 3 5 C3 3.68 3 2.36 3 1 C2.34 1 1.68 1 1 1 C1 2.32 1 3.64 1 5 C-0.32 5 -1.64 5 -3 5 C-3 6.32 -3 7.64 -3 9 C-8.94 9 -14.88 9 -21 9 C-21 7.68 -21 6.36 -21 5 C-21.66 5 -22.32 5 -23 5 C-23 6.98 -23 8.96 -23 11 C-21.68 11 -20.36 11 -19 11 C-19 12.32 -19 13.64 -19 15 C-16.36 15 -13.72 15 -11 15 C-11 16.98 -11 18.96 -11 21 C-11.99 20.67 -12.98 20.34 -14 20 C-13.34 20 -12.68 20 -12 20 C-12 18.68 -12 17.36 -12 16 C-14.64 16 -17.28 16 -20 16 C-20 14.68 -20 13.36 -20 12 C-21.32 12 -22.64 12 -24 12 C-24 9.36 -24 6.72 -24 4 C-22.68 4 -21.36 4 -20 4 C-20 5.32 -20 6.64 -20 8 C-14.72 8 -9.44 8 -4 8 C-4 6.68 -4 5.36 -4 4 C-2.68 4 -1.36 4 0 4 C0 2.68 0 1.36 0 0 Z " fill="#140C04" transform="translate(52,52)"/>
<path d="M0 0 C1.65 0 3.3 0 5 0 C5 1.32 5 2.64 5 4 C6.32 4 7.64 4 9 4 C9 5.32 9 6.64 9 8 C6.36 8 3.72 8 1 8 C1 9.32 1 10.64 1 12 C-0.32 12 -1.64 12 -3 12 C-3 14.64 -3 17.28 -3 20 C-4.32 20 -5.64 20 -7 20 C-7 17.36 -7 14.72 -7 12 C-6.01 11.67 -5.02 11.34 -4 11 C-4 9.68 -4 8.36 -4 7 C-2.68 7 -1.36 7 0 7 C0 4.69 0 2.38 0 0 Z " fill="#4D2F10" transform="translate(19,44)"/>
<path d="M0 0 C3.96 0 7.92 0 12 0 C12 6.6 12 13.2 12 20 C10.68 20 9.36 20 8 20 C8 14.72 8 9.44 8 4 C5.36 4 2.72 4 0 4 C0 2.68 0 1.36 0 0 Z " fill="#D9802D" transform="translate(48,28)"/>
<path d="M0 0 C2.31 0 4.62 0 7 0 C7 0.33 7 0.66 7 1 C5.02 1 3.04 1 1 1 C1 2.32 1 3.64 1 5 C-0.32 5 -1.64 5 -3 5 C-3 5.66 -3 6.32 -3 7 C-1.68 7 -0.36 7 1 7 C1 8.32 1 9.64 1 11 C2.32 11 3.64 11 5 11 C5 12.32 5 13.64 5 15 C6.32 15 7.64 15 9 15 C9 16.32 9 17.64 9 19 C10.32 19 11.64 19 13 19 C13 22.3 13 25.6 13 29 C11.02 29 9.04 29 7 29 C6.9727585 27.58344207 6.95349533 26.16672955 6.9375 24.75 C6.92589844 23.96109375 6.91429688 23.1721875 6.90234375 22.359375 C6.99614694 20.09308998 7.36758937 18.1711105 8 16 C6.68 16 5.36 16 4 16 C4 14.68 4 13.36 4 12 C2.68 12 1.36 12 0 12 C0 10.68 0 9.36 0 8 C-1.32 8 -2.64 8 -4 8 C-4 6.68 -4 5.36 -4 4 C-2.68 4 -1.36 4 0 4 C0 2.68 0 1.36 0 0 Z " fill="#000000" transform="translate(60,20)"/>
<path d="M0 0 C0.33 0 0.66 0 1 0 C1 2.64 1 5.28 1 8 C-0.32 8 -1.64 8 -3 8 C-3 9.32 -3 10.64 -3 12 C-4.32 12 -5.64 12 -7 12 C-7 13.32 -7 14.64 -7 16 C-5.68 16 -4.36 16 -3 16 C-3 17.32 -3 18.64 -3 20 C-2.01 20.33 -1.02 20.66 0 21 C-1.32 21 -2.64 21 -4 21 C-4 19.68 -4 18.36 -4 17 C-4.66 17 -5.32 17 -6 17 C-6 19.64 -6 22.28 -6 25 C-7.98 25 -9.96 25 -12 25 C-12 21.7 -12 18.4 -12 15 C-10.68 15 -9.36 15 -8 15 C-8 13.68 -8 12.36 -8 11 C-6.68 11 -5.36 11 -4 11 C-4 9.68 -4 8.36 -4 7 C-2.68 7 -1.36 7 0 7 C0 4.69 0 2.38 0 0 Z " fill="#000000" transform="translate(19,24)"/>
<path d="M0 0 C3.3 0 6.6 0 10 0 C10 1.32 10 2.64 10 4 C11.32 4 12.64 4 14 4 C14 5.98 14 7.96 14 10 C12.02 10 10.04 10 8 10 C8 8.35 8 6.7 8 5 C4.7 5 1.4 5 -2 5 C-1.34 4.67 -0.68 4.34 0 4 C0 2.68 0 1.36 0 0 Z " fill="#301D0A" transform="translate(59,15)"/>
<path d="M0 0 C5.28 0 10.56 0 16 0 C16 1.32 16 2.64 16 4 C10.72 4 5.44 4 0 4 C0 2.68 0 1.36 0 0 Z " fill="#A56522" transform="translate(32,56)"/>
<path d="M0 0 C1.32 0 2.64 0 4 0 C4 1.32 4 2.64 4 4 C5.32 4 6.64 4 8 4 C8 5.32 8 6.64 8 8 C6.68 8 5.36 8 4 8 C4 9.32 4 10.64 4 12 C2.68 12 1.36 12 0 12 C0 8.04 0 4.08 0 0 Z " fill="#A56522" transform="translate(60,32)"/>
<path d="M0 0 C1.32 0 2.64 0 4 0 C4 3.96 4 7.92 4 12 C2.68 12 1.36 12 0 12 C0 10.68 0 9.36 0 8 C-1.32 8 -2.64 8 -4 8 C-4 6.68 -4 5.36 -4 4 C-2.68 4 -1.36 4 0 4 C0 2.68 0 1.36 0 0 Z " fill="#A56522" transform="translate(16,32)"/>
<path d="M0 0 C5.28 0 10.56 0 16 0 C16 1.32 16 2.64 16 4 C10.72 4 5.44 4 0 4 C0 2.68 0 1.36 0 0 Z " fill="#EB8931" transform="translate(32,24)"/>
<path d="M0 0 C1.32 0 2.64 0 4 0 C4 1.32 4 2.64 4 4 C5.32 4 6.64 4 8 4 C8 5.32 8 6.64 8 8 C5.36 8 2.72 8 0 8 C0 5.36 0 2.72 0 0 Z " fill="#A56522" transform="translate(20,44)"/>
<path d="M0 0 C1.32 0 2.64 0 4 0 C4 3.96 4 7.92 4 12 C2.68 12 1.36 12 0 12 C0 8.04 0 4.08 0 0 Z " fill="#B6A189" transform="translate(56,36)"/>
<path d="M0 0 C2.64 0 5.28 0 8 0 C8 1.32 8 2.64 8 4 C5.36 4 2.72 4 0 4 C0 2.68 0 1.36 0 0 Z " fill="#A56522" transform="translate(32,68)"/>
<path d="M0 0 C1.32 0 2.64 0 4 0 C4 2.64 4 5.28 4 8 C2.68 8 1.36 8 0 8 C0 5.36 0 2.72 0 0 Z " fill="#A56522" transform="translate(60,56)"/>
<path d="M0 0 C1.32 0 2.64 0 4 0 C4 2.64 4 5.28 4 8 C2.68 8 1.36 8 0 8 C0 5.36 0 2.72 0 0 Z " fill="#A56522" transform="translate(24,56)"/>
<path d="M0 0 C1.32 0 2.64 0 4 0 C4 2.64 4 5.28 4 8 C2.68 8 1.36 8 0 8 C0 5.36 0 2.72 0 0 Z " fill="#A56522" transform="translate(12,56)"/>
<path d="M0 0 C1.32 0 2.64 0 4 0 C4 2.64 4 5.28 4 8 C2.68 8 1.36 8 0 8 C0 5.36 0 2.72 0 0 Z " fill="#A56522" transform="translate(68,40)"/>
<path d="M0 0 C1.32 0 2.64 0 4 0 C4 2.64 4 5.28 4 8 C2.68 8 1.36 8 0 8 C0 5.36 0 2.72 0 0 Z " fill="#A56522" transform="translate(8,40)"/>
<path d="M0 0 C1.32 0 2.64 0 4 0 C4 2.64 4 5.28 4 8 C2.68 8 1.36 8 0 8 C0 5.36 0 2.72 0 0 Z " fill="#BFBFBD" transform="translate(20,36)"/>
<path d="M0 0 C2.64 0 5.28 0 8 0 C8 1.32 8 2.64 8 4 C5.36 4 2.72 4 0 4 C0 2.68 0 1.36 0 0 Z " fill="#EB8931" transform="translate(24,28)"/>
<path d="M0 0 C2.64 0 5.28 0 8 0 C8 1.32 8 2.64 8 4 C5.36 4 2.72 4 0 4 C0 2.68 0 1.36 0 0 Z " fill="#A56522" transform="translate(60,16)"/>
<path d="M0 0 C1.32 0 2.64 0 4 0 C4 2.64 4 5.28 4 8 C2.68 8 1.36 8 0 8 C0 5.36 0 2.72 0 0 Z " fill="#A56522" transform="translate(16,16)"/>
<path d="M0 0 C2.64 0 5.28 0 8 0 C8 1.32 8 2.64 8 4 C5.36 4 2.72 4 0 4 C0 2.68 0 1.36 0 0 Z " fill="#A56522" transform="translate(48,12)"/>
</svg>
